<svg id="Layer_1" data-name="Layer 1" xmlns="http://www.w3.org/2000/svg" viewBox="0 0 300 300"><defs><style>.cls-1{fill:#181818;}.cls-1,.cls-13,.cls-2,.cls-3,.cls-4,.cls-6,.cls-7,.cls-8{stroke:#231f20;stroke-miterlimit:10;stroke-width:0.77px;}.cls-2{fill:#40403f;}.cls-3{fill:#4a494a;}.cls-4{fill:#353535;}.cls-5{fill:#14161a;}.cls-6{fill:#515251;}.cls-7{fill:#4c4c4d;}.cls-8{fill:#333;}.cls-9{fill:#3a3a3a;}.cls-10{fill:#424343;}.cls-11{fill:#3a4854;}.cls-12{fill:#231f20;}.cls-13{fill:#fff;}.cls-14{fill:#565554;}</style></defs><title>ravenShooter</title><path class="cls-1" d="M257.93,142.66a6.42,6.42,0,0,0-5.82,3c-.69,1.13-.73,2.18-.8,4.15-.09,2.14-.14,3.64.61,4.65,1.36,1.81,5.22,2,9.41.39a9.12,9.12,0,0,0,2.18-4.45,6.56,6.56,0,0,0-.53-4.54A6.32,6.32,0,0,0,257.93,142.66Z"/><path class="cls-2" d="M229.7,127.27a79.12,79.12,0,0,0-1.39-9,81,81,0,0,0-2.26-8.3,53,53,0,0,1,12.87,4.86,39.74,39.74,0,0,1,8.9,6.14,38.38,38.38,0,0,1,7.3,9.59,46.42,46.42,0,0,1,4.11,12.22c-1,.47-2.07.51-3.18,1-1.43.58-3,1.16-4.27,1.55-1.5-2.77-3.07-6.61-4.76-9.48q-2.06-3.5-4.12-6.78a37.29,37.29,0,0,0-4.38-.77c-2.2-.25-3.37-.17-5.84-.51C231.41,127.63,230.38,127.42,229.7,127.27Z"/><path class="cls-3" d="M229.11,127.55c-.48,3-3.56,4.9-6.46,6.92-7.29,5.08-6.68,6.24-10.5,8.46-9.84,5.74-23.76,3.83-24.2-.18-.75-6.83,37.14-24.34,40.7-18.3A5,5,0,0,1,229.11,127.55Z"/><path class="cls-2" d="M178.73,162.61c.58,1,4.68,1.06,12.89,1.14a76.18,76.18,0,0,0,11.35-.34c3.75-.5,7.22-1.6,14.14-3.8,4.92-1.57,8.28-2.19,8.36-3.63.06-1.09-1.76-1.31-2.34-3.08-.94-2.85,2.79-5.29,1.9-6.74-.56-.9-2.29-.52-9.71,0-6.42.43-8.79-.13-11.85,0C190.34,146.67,176.81,159.22,178.73,162.61Z"/><path class="cls-1" d="M231.69,156.93c-1.66-.11-3-.16-3.78-.19-1.85-.07-2.59-.07-3.29-.58a3.38,3.38,0,0,1-1.19-2c-.28-1-1.87-6.76.89-9.34,3.93-3.66,15.06.62,15.33,5C239.88,153.52,232.33,156.67,231.69,156.93Z"/><path class="cls-4" d="M166.78,152.61a28.17,28.17,0,0,0,3.74,5.5c2.33,2.24,3.53,4,5.42,4.67,6.87,2.38,16.78-8.9,18.68-11.06,3.34-3.81,2.1-3.56,5.49-7.56a53.08,53.08,0,0,1,21.8-15.11,46.37,46.37,0,0,1,7.79-1.78,16.11,16.11,0,0,0,1.56-8c0-.71-.53-7-4.55-10.06-2-1.57-6.37-3.36-17.72.57C182.11,119.13,163.09,144.93,166.78,152.61Z"/><path class="cls-5" d="M179.9,151.6a5,5,0,0,1,2.7-4.59h40.47a8,8,0,0,1,11.6-.55l20-.28,24.28,1.74v-.52a.53.53,0,0,1,.54-.55l5.93.09a.41.41,0,0,1,.4.41l.33.57h9.26v-.3c0-.23.19-.61.4-.54l3.2.69a.65.65,0,0,1,.44.62v3.39a1.08,1.08,0,0,1-.74,1l-2.75.58c-.19.06-.44-.07-.43-.27v-.54H286l-.23.75a.62.62,0,0,1-.62.63l-5.9,0a.52.52,0,0,1-.5-.54v-.54L255,154.8H213.76l-31.16,1.12A5,5,0,0,1,179.9,151.6Z"/><polygon class="cls-6" points="247.92 147.22 247.92 148.51 254.09 148.51 254.09 151.43 247.92 151.43 247.92 152.93 268.03 152.42 268.03 147.69 247.92 147.22"/><polygon class="cls-7" points="254.97 149.1 254.97 151.05 267.21 150.89 267.21 149.29 254.97 149.1"/><polygon class="cls-6" points="227.26 147.55 227.09 149.6 238.38 149.6 238.55 147.55 227.26 147.55"/><polygon class="cls-8" points="215.2 151.28 215.41 152.5 243.16 152.5 243.76 151.28 215.2 151.28"/><path class="cls-9" d="M279.24,147.19a10.23,10.23,0,0,1,.5,2.91,10.69,10.69,0,0,1-.46,3.4l5.77,0a7.73,7.73,0,0,0,.66-3.33,7.65,7.65,0,0,0-.66-2.94Z"/><path class="cls-10" d="M295.77,147.29c.07.66.15,1.59.16,2.7a27.72,27.72,0,0,1-.15,3.17c.61,0,1.26-.41,1.86-.42a15.83,15.83,0,0,0,.16-2.72,16.06,16.06,0,0,0-.16-2.38Z"/><path class="cls-7" d="M211.78,153.85l-28.85.59a4.32,4.32,0,0,1-2.1-4,4.23,4.23,0,0,1,2.37-3.52l28.39.07a19.33,19.33,0,0,0-.2,3.67A18.41,18.41,0,0,0,211.78,153.85Z"/><path class="cls-11" d="M224.72,145.87l9-.15a7.46,7.46,0,0,0-9,.15Z"/><path class="cls-6" d="M97.94,114.82A223.6,223.6,0,0,0,82.76,87c-3.46-5.37-5.33-7.75-5-8.05.86-.7,13.17,10,21.9,25.11a85.54,85.54,0,0,1,5,10.15"/><path class="cls-6" d="M135.59,131.88a220,220,0,0,0-7.71-30.58c-2-6-3.22-8.77-2.78-9,1-.47,10.26,12.78,14.9,29.55a84.31,84.31,0,0,1,2.28,11"/><path class="cls-6" d="M168.12,157c-6.79,1.32-5.19-2.09-22.69-3.89-17.23-1.76-23.74,1-31.19-3.91-5.67-3.76-7.7-9.23-9.71-14.11C91.2,102.84,74.49,87,77.81,84.27c3.76-3.06,20.1,21.18,54.51,31.28,10.53,3.09,32.45,9.53,47-1.39,11.75-8.81,13-24.64,13.93-36.72,2.56-33-12.26-57-8.6-58.73,2.76-1.28,8.9,13.58,28.17,29.9,10.81,9.15,14.11,8.92,16.22,14.57,4.19,11.26-7.31,16.61-8.56,39.07-.41,7.43.55,12.23-3.17,17.53s-8.42,6.16-14.39,9C182,138.68,183.38,154.06,168.12,157Z"/><path class="cls-6" d="M149.57,132.91a55.64,55.64,0,0,1-10.24-20.68c-1.7-6.78-1.91-13.28-1.17-13.43.92-.18,2.23,9.81,9.14,20.9a63.45,63.45,0,0,0,8.09,10.36"/><path class="cls-6" d="M164,130.51a204.34,204.34,0,0,1-13.69-26.25c-2.36-5.48-3.22-8.17-3.66-8-1,.31.7,15.39,7.91,30a78.28,78.28,0,0,0,5.3,9.14"/><path class="cls-6" d="M106,140.39c-3.32-10.76-6.76-18.54-16.92-34.88S69,78.74,69.83,78s13.88,11.12,25.54,25.9c4.44,5.63,7.82,10.57,10.13,14.13"/><path class="cls-6" d="M118.94,123.36a219.22,219.22,0,0,0-7.72-30.57c-2-6-3.21-8.78-2.77-9,1-.47,10.26,12.79,14.9,29.55a84,84,0,0,1,2.27,11"/><path class="cls-6" d="M107.23,115.93a221.7,221.7,0,0,0-13.32-28.7c-3.09-5.57-4.81-8.07-4.41-8.34.9-.65,12.48,10.76,20.19,26.42a85.12,85.12,0,0,1,4.3,10.43"/><path class="cls-6" d="M111,127a130.16,130.16,0,0,0-12.91-26.32c-8.65-13.54-17-21-16.4-21.52S94.47,88.21,105,102.58a114.76,114.76,0,0,1,9,14.33"/><path class="cls-6" d="M114.12,123.47a171.58,171.58,0,0,0-7.26-20.8C101.14,89.12,96.32,82.56,97.16,82c1.12-.74,11.63,9.58,18.17,24a71,71,0,0,1,5.08,16"/><path class="cls-6" d="M121.31,128.46a73.64,73.64,0,0,0-3.31-29c-3.14-9.57-7.85-17-7.17-17.39s5.66,6.22,9.82,13.33A103.38,103.38,0,0,1,132.08,124"/><path class="cls-6" d="M132.44,127.79c-1.32-5.65-3.48-14.08-6.83-24.19-3.64-11-6.58-17.63-6-17.85s6,14.44,17.88,32.07c2.49,3.68,4.69,6.65,6.25,8.7"/><path class="cls-6" d="M142.41,129.86a96.14,96.14,0,0,1-9.18-25.35c-1.83-8.77-2.09-16.24-1.55-16.33.75-.11,1.7,14.43,10.79,30.42A80.34,80.34,0,0,0,148,127"/><path class="cls-6" d="M148.66,129.12A73.6,73.6,0,0,1,143,108.4c-1-8-.47-15.38.29-15.44s1,8.53,5.2,18.86a62.53,62.53,0,0,0,8.91,15.12"/><path class="cls-6" d="M160.64,127.86a55.85,55.85,0,0,1-10.24-20.69c-1.7-6.77-1.91-13.28-1.17-13.42.92-.18,2.23,9.81,9.14,20.89A63.12,63.12,0,0,0,166.46,125"/><path class="cls-6" d="M166.85,129.73a117.37,117.37,0,0,1-10.52-20.44c-2.62-6.63-4.16-12.3-3.65-12.5.75-.28,4,12,14.48,22.21a52.39,52.39,0,0,0,12.48,9"/><path class="cls-6" d="M108.64,129.46A41.86,41.86,0,0,0,100,115.14c-5.63-6-12.46-9.67-13-9s5.31,4.87,10.55,13.4c2.92,4.74,8.75,19.22,9.7,22.22"/><path class="cls-6" d="M109.17,134.15a70.63,70.63,0,0,0-8.68-19.51c-4-6.17-7.83-10-7.35-10.47s7.28,4.28,12.76,10.74A56.75,56.75,0,0,1,115.84,132"/><path class="cls-6" d="M115.39,132.46c-1.46-4.62-3.82-11.51-7.32-19.71-3.89-9.09-6.54-13.61-5.94-13.92.92-.47,8.79,9.72,15.09,20.88,2.34,4.15,4.06,7.71,5.2,10.22"/><path class="cls-6" d="M121.19,133.29a109.07,109.07,0,0,1-7.69-27.89c-.22-1.74-.86-6.67-.17-6.83,1.06-.24,3.73,11.28,11,25.71,2.12,4.19,4.08,7.52,5.41,9.7"/><path class="cls-6" d="M123.63,133.3a160.45,160.45,0,0,0-3.39-19.85c-1.59-6.74-3.12-10.86-2.52-11.1.91-.36,5.69,8.4,9.09,16.12A127.66,127.66,0,0,1,132.5,134"/><path class="cls-6" d="M131.08,139.78a77.19,77.19,0,0,1-3.88-13.29c-2.12-10.78-1.64-20.53-.79-20.61s1.15,8.52,5.8,20.33a86.83,86.83,0,0,0,6.21,12.63"/><path class="cls-6" d="M134.69,135.36a52.76,52.76,0,0,1-3.12-10.81c-1.51-8.66-.49-16.28.37-16.27s.66,6.81,4.63,16.51a65.23,65.23,0,0,0,5.48,10.49"/><path class="cls-6" d="M143.07,137.72a59,59,0,0,1-4.16-11.22c-2.34-9.09-2-17.33-1.18-17.4s1.32,7.2,6.23,17.15a70.86,70.86,0,0,0,6.49,10.65"/><path class="cls-6" d="M148,136.59a48.19,48.19,0,0,1-4.82-10.86c-2.57-8.69-1.79-16.35-.68-16.33s1.35,6.84,7.19,16.59a68.48,68.48,0,0,0,7.86,10.54"/><path class="cls-6" d="M113.83,141.53a28.31,28.31,0,0,0-.45-9.32c-1.06-4.83-2.94-7.15-2.45-7.46.81-.53,7.21,4.95,9.21,12.9a20.88,20.88,0,0,1,.61,4"/><path class="cls-6" d="M109,143.79A31.41,31.41,0,0,0,107.11,133c-1.53-4.23-3.46-6.63-3-7,.62-.46,5,3.4,8.19,8.34a32,32,0,0,1,3.86,8.64"/><path class="cls-6" d="M119,143.64a31.31,31.31,0,0,0,.68-11c-.52-4.46-1.85-7.21-1.33-7.44.71-.31,4.13,4.4,6.08,9.9a31.63,31.63,0,0,1,1.78,9.25"/><path class="cls-6" d="M127.14,145.69c-1.14-2.37-1.41-3.62-1.91-8.18-.62-5.79.41-11.42,1.3-11.45s.8,5.6,4.35,13a41,41,0,0,0,3.76,6.29"/><path class="cls-6" d="M133.66,146a22,22,0,0,1-2.56-10.21c0-4.31,1.41-8.22,2.06-8.16s-.17,4.52,2,9.67a19.89,19.89,0,0,0,4.28,6.24"/><path class="cls-6" d="M138.92,147c-1.28-2.05-1.6-3.12-2.26-7-.83-4.94.1-9.7,1-9.7s1,4.78,5,11.14a17.81,17.81,0,0,0,2.63,3.67"/><path class="cls-6" d="M153.49,138.87c-2.69-9.12-4.85-16.19-6.29-20.89-1.22-4-1.93-6.23-1.51-6.36.88-.28,6,8.93,9.48,16.06,1.8,3.72,3.12,6.85,4,9"/><path class="cls-6" d="M174.64,134.76a117,117,0,0,1-10.52-20.44c-2.62-6.62-4.16-12.3-3.65-12.5.75-.28,4,12,14.48,22.21a52.39,52.39,0,0,0,12.48,9"/><path class="cls-6" d="M179.8,134.18a103.36,103.36,0,0,1-10.62-18.61c-2.65-6-4.22-11.19-3.71-11.37.74-.25,4.08,10.89,14.58,20.24a53.31,53.31,0,0,0,12.52,8.23"/><path class="cls-6" d="M152.08,145.1a33.89,33.89,0,0,1-8.11-9.32c-1.38-2.4-2.26-4.68-2.74-4.55-.76.22.29,6,.48,7.06.36,2,.93,4.39,1.29,5.91.23,1,.43,1.77.56,2.31"/><path class="cls-6" d="M149.57,147.55c-1.28-2.05-1.61-3.12-2.26-7-.84-4.94.1-9.7,1-9.7s1,4.78,5,11.14a17.44,17.44,0,0,0,2.63,3.67"/><path class="cls-6" d="M162.51,145.06a33.63,33.63,0,0,1-8.1-9.31c-1.39-2.4-2.27-4.69-2.75-4.55-.76.21.29,6,.48,7.06.36,2,.93,4.38,1.29,5.91.23,1,.43,1.77.56,2.31"/><path class="cls-6" d="M158.85,137.78A48.12,48.12,0,0,1,154,126.93c-2.58-8.7-1.8-16.35-.68-16.33s1.34,6.83,7.19,16.58a68.18,68.18,0,0,0,7.85,10.55"/><path class="cls-6" d="M191.81,127.19a105.45,105.45,0,0,0-14-16.36c-4.82-4.58-9.21-7.88-9.56-7.48-.52.58,9,7.65,14.13,20.53a50.78,50.78,0,0,1,3.36,14.32"/><path class="cls-6" d="M159.73,148.73c-1.51-2.17-2-3.36-3.22-7.78-1.57-5.63-1.47-11.34-.6-11.51s1.71,5.4,6.42,12.13a41,41,0,0,0,4.75,5.63"/><path class="cls-6" d="M164.72,139.43c-2.69-9.12-4.84-16.19-6.29-20.89-1.22-4-1.93-6.23-1.51-6.36.88-.28,6,8.93,9.48,16.06,1.8,3.72,3.13,6.85,4,9"/><path class="cls-6" d="M172,146.06a41.47,41.47,0,0,1-9.1-11c-1.61-2.84-2.69-5.57-3.18-5.4-.78.27.73,7.21,1,8.46.52,2.39,1.27,5.24,1.76,7.07.31,1.15.57,2.11.75,2.75"/><path class="cls-6" d="M168.27,147.93c-1.23-2.41-1.53-3.67-2.08-8.29-.71-5.87.35-11.56,1.29-11.58s.89,5.66,4.72,13.15a19.66,19.66,0,0,0,2.54,4.3"/><path class="cls-6" d="M179.72,141.55c-1.9-1.86-1.4-3.75-3.45-7.89-2.61-5.25-3.59-10.88-2.76-11.2s2.7,5,8.6,10.78a41.4,41.4,0,0,0,5.73,4.7"/><path class="cls-6" d="M173.38,145.34a31.53,31.53,0,0,0-1.08-10.94c-1.23-4.32-3-6.84-2.51-7.14.65-.41,4.78,3.73,7.59,8.86a32.2,32.2,0,0,1,3.25,8.87"/><path class="cls-6" d="M201.61,43.41a228.09,228.09,0,0,1-21.19-23.83c-3.89-5.07-5.5-7.64-5.93-7.41-1,.53,4.78,15.53,16.16,28.92a87.71,87.71,0,0,0,7.93,8.19"/><path class="cls-6" d="M204.31,83.65a231.35,231.35,0,0,1-26.56-18.09c-5.05-4-7.26-6.09-7.61-5.77-.82.74,8.54,13.92,23,24.21a90.7,90.7,0,0,0,9.76,6.06"/><path class="cls-6" d="M200.22,96.66a57.21,57.21,0,0,0-16.14-16.78c-5.89-4-12.06-6.54-12.46-5.93-.51.77,8.6,5.58,16.74,15.86a62.44,62.44,0,0,1,7,11.07"/><path class="cls-6" d="M192.68,108.81a207.57,207.57,0,0,0-20.23-21.92c-4.4-4.12-6.67-5.88-6.38-6.23.66-.81,14.51,6.22,26,18.07a79.27,79.27,0,0,1,6.85,8.11"/><path class="cls-6" d="M229,64.4a184,184,0,0,1-33.15-32.35c-12-15.2-18.39-27.93-19.38-27.42s5.63,16.59,15.59,32.5c3.79,6.06,7.31,10.91,9.89,14.3"/><path class="cls-6" d="M202.18,65.5a231.08,231.08,0,0,1-26.55-18.09c-5.06-4-7.26-6.09-7.62-5.77-.82.74,8.55,13.92,23,24.21a89.74,89.74,0,0,0,9.75,6.06"/><path class="cls-6" d="M199.3,52.21a228.22,228.22,0,0,1-22.72-22.47c-4.22-4.82-6-7.27-6.4-7-1,.59,5.79,15.2,18,27.86a89.33,89.33,0,0,0,8.45,7.68"/><path class="cls-6" d="M208.56,59.6A133.79,133.79,0,0,1,188,38.37c-9.85-12.74-14-23-14.7-22.65s4,14.88,14,29.6a116.27,116.27,0,0,0,10.51,13.31"/><path class="cls-6" d="M204,61.18A177.87,177.87,0,0,1,186.7,47.06C175.77,37,171.23,30.23,170.39,30.79c-1.12.74,5,14,16.41,25.13a75,75,0,0,0,13.49,10.4"/><path class="cls-6" d="M206.21,69.49A79.09,79.09,0,0,1,179.58,56c-8.06-6.32-13.48-13.28-14.09-12.8s3.91,7.37,9.23,13.72A107.74,107.74,0,0,0,198,77.62"/><path class="cls-6" d="M201.53,79.31c-4.95-3.25-12.26-8.26-20.74-15-9.25-7.29-14.54-12.35-15-11.95s11.71,10.65,24.3,27.82c2.63,3.58,4.68,6.66,6.08,8.81"/><path class="cls-6" d="M188,132a57,57,0,0,1-15-17.74c-3.31-6.19-5.1-12.46-4.42-12.77.85-.39,4.57,9,14,18.19A64.63,64.63,0,0,0,193,127.89"/><path class="cls-6" d="M199.89,89.08a100.34,100.34,0,0,0-21-17.51c-7.75-4.84-14.83-7.79-15.1-7.34C163.39,64.87,177,71,189.05,85a82.87,82.87,0,0,1,6.07,8"/><path class="cls-6" d="M196.91,94.46a78,78,0,0,0-17.84-12.63c-7.32-3.76-14.6-6-14.94-5.35s7.85,4,16.22,11.56a62.73,62.73,0,0,1,11.28,13.55"/><path class="cls-6" d="M191.35,104.83A57.26,57.26,0,0,0,175.2,88.06c-5.88-4-12-6.55-12.46-5.94-.51.77,8.61,5.58,16.74,15.86a62.61,62.61,0,0,1,7,11.08"/><path class="cls-6" d="M190.88,111.13a119,119,0,0,0-15.8-16.94c-5.41-4.78-10.3-8.23-10.67-7.84-.55.57,10,8,16.06,21.15a49.7,49.7,0,0,1,4.11,14.56"/><path class="cls-6" d="M212,57.94a42.5,42.5,0,0,1-10.6-13.06c-3.76-7.29-4.76-14.78-3.94-15.05s2.75,6.58,9,14.41A56.25,56.25,0,0,0,216,53.62"/><path class="cls-6" d="M216.09,60.59a72.9,72.9,0,0,1-15.58-14.94c-4.48-5.83-6.75-10.71-7.38-10.45s1.46,8.14,5.67,15.44a57.62,57.62,0,0,0,12.82,15.2"/><path class="cls-6" d="M212.21,65.6c-3.91-3-9.67-7.64-16.27-13.78C188.62,45,185.25,41,184.74,41.39c-.79.66,6.13,11.48,14.56,21.23,3.14,3.62,5.93,6.47,7.92,8.41"/><path class="cls-6" d="M210.9,71.14a115.11,115.11,0,0,0-24-17.08c-1.59-.84-6.09-3.2-6.49-2.64-.62.87,9.47,7.47,20.67,19.33,3.25,3.44,5.74,6.42,7.35,8.42"/><path class="cls-6" d="M210,73.35a171.79,171.79,0,0,1-17.83-10.27c-5.9-3.89-9.29-6.77-9.74-6.32-.68.69,6,8.19,12.17,14.08a133.59,133.59,0,0,0,12.85,10.79"/><path class="cls-6" d="M213.53,82.44a80.8,80.8,0,0,0-11.35-8.34c-9.57-5.83-19.11-8.95-19.5-8.2s7.77,4.14,17.41,12.63A88,88,0,0,1,210,88.73"/><path class="cls-6" d="M208,84.09a55.27,55.27,0,0,0-9.24-6.74C191,72.84,183.28,71,183,71.77s6.29,3.07,14.17,10.19a67.6,67.6,0,0,1,8.08,8.76"/><path class="cls-6" d="M207.2,92.53a61.78,61.78,0,0,0-9.26-7.84c-7.88-5.41-15.9-8.14-16.28-7.38s6.43,3.8,14.21,11.85a73.32,73.32,0,0,1,7.86,9.74"/><path class="cls-6" d="M204.33,96.54a49.3,49.3,0,0,0-8.67-8.3c-7.41-5.49-15-7.56-15.43-6.55s6.07,3.7,13.31,12.53a68.78,68.78,0,0,1,7.27,10.93"/><path class="cls-6" d="M221.48,67.48a30.72,30.72,0,0,1-8.79-3.79c-4.25-2.72-5.79-5.26-6.27-4.93-.8.54,2.13,8.32,9,13a21.5,21.5,0,0,0,3.59,2"/><path class="cls-6" d="M225.42,63.9a33.66,33.66,0,0,1-9.74-5.61c-3.5-2.92-5.1-5.54-5.59-5.25-.66.4,1.44,5.79,5,10.44A33.15,33.15,0,0,0,222,70.11"/><path class="cls-6" d="M221.63,72.93a34.3,34.3,0,0,1-10.78-3.37c-4.09-2.09-6.25-4.3-6.66-3.91s2.74,5.33,7.31,9.09a33.59,33.59,0,0,0,8.23,5"/><path class="cls-6" d="M220.64,81c-1.86-1.89-3-2.59-7.16-4.69-5.34-2.67-11.12-3.78-11.47-3s5.08,2.76,10.87,8.64a40.58,40.58,0,0,1,4.67,5.69"/><path class="cls-6" d="M218.61,87.05a23.27,23.27,0,0,0-8.88-6c-4.15-1.54-8.4-1.71-8.58-1.1s4.4,1.49,8.54,5.35a19.9,19.9,0,0,1,4.44,6.13"/><path class="cls-6" d="M217.63,92.16c-1.5-1.9-2.41-2.58-5.91-4.59C207.28,85,202.37,84.14,202,85s4.22,2.65,8.89,8.56a17,17,0,0,1,2.56,3.71"/><path class="cls-6" d="M204.51,102.36c-7.77-5.74-13.78-10.26-17.76-13.27-3.38-2.55-5.28-4-5.57-3.68-.58.7,6.39,8.69,12,14.41,2.92,3,5.44,5.31,7.17,6.87"/><path class="cls-6" d="M192.88,120a119.49,119.49,0,0,0-15.8-16.94c-5.41-4.78-10.3-8.23-10.67-7.84-.55.57,10,8,16.06,21.16a49.57,49.57,0,0,1,4.11,14.55"/><path class="cls-6" d="M193.65,125.57a105.55,105.55,0,0,0-14-16.36c-4.83-4.59-9.22-7.88-9.57-7.49-.51.58,9,7.65,14.13,20.54a50.37,50.37,0,0,1,3.36,14.31"/><path class="cls-6" d="M211,103.36a33.32,33.32,0,0,0-6-10.72c-1.8-2.12-3.68-3.74-3.37-4.13.48-.61,5.66,2.45,6.6,3,1.79,1,3.87,2.43,5.21,3.31l2,1.35"/><path class="cls-6" d="M214.27,102c-1.5-1.91-2.41-2.59-5.91-4.59-4.44-2.55-9.34-3.44-9.69-2.59s4.22,2.65,8.89,8.56a17.19,17.19,0,0,1,2.56,3.71"/><path class="cls-6" d="M207.18,112.78a33.34,33.34,0,0,0-6-10.72c-1.8-2.12-3.68-3.74-3.37-4.14.47-.6,5.66,2.45,6.6,3,1.79,1,3.87,2.43,5.21,3.31l2,1.35"/><path class="cls-6" d="M201.52,106.82a49.67,49.67,0,0,0-8.67-8.3C185.44,93,177.81,91,177.42,92s6.07,3.7,13.31,12.53A68.09,68.09,0,0,1,198,115.43"/><path class="cls-6" d="M211.71,111.59c-1.53-2.15-2.5-3-6.3-5.74-4.83-3.46-10.35-5.45-10.83-4.72s4.57,3.51,9.32,10.21a41,41,0,0,1,3.67,6.34"/><path class="cls-6" d="M201,112.72c-7.77-5.74-13.79-10.26-17.77-13.27-3.37-2.55-5.28-4-5.56-3.68-.59.69,6.39,8.69,12,14.41,2.92,3,5.44,5.31,7.17,6.87"/><path class="cls-6" d="M204.69,121.72a41.3,41.3,0,0,0-7.25-12.22c-2.15-2.49-4.38-4.45-4-4.84.54-.6,6.65,3.28,7.76,4,2.1,1.34,4.56,3.06,6.14,4.16,1,.7,1.82,1.28,2.37,1.68"/><path class="cls-6" d="M207.84,119c-1.86-2-3-2.71-7.2-4.9-5.38-2.77-11.23-3.88-11.59-3s5.12,2.86,10.91,9a20,20,0,0,1,3.21,3.86"/><path class="cls-6" d="M197.56,127.05c-1.1-2.39-3.1-2.63-6.32-6-4.1-4.25-9.15-7.19-9.76-6.56s3.83,4.26,7.23,11.69a40.17,40.17,0,0,1,2.43,6.89"/><path class="cls-6" d="M203.5,122.7a33.91,33.91,0,0,1-10.11-5c-3.7-2.69-5.48-5.19-5.95-4.87-.63.44,1.85,5.68,5.76,10.08a33.2,33.2,0,0,0,7.33,6.16"/><path class="cls-2" d="M209.19,123c-.6-.55-6.09-5.47-13.27-4.48-6.32.88-13.54,6.26-13.15,13.69.39,7.25,7.8,12,13.41,12.28,4.77.26,8.64-2,10.75-3.33a22.89,22.89,0,0,0,6.91-6.65q2.4-.75,4.91-1.47,2.9-.84,5.7-1.6L219,129.53l-6.5-2.17A16,16,0,0,0,209.19,123Z"/><path class="cls-12" d="M210.28,126.08c.43-.86-2.18-2.91-3.92-4-3.23-1.92-7.51-2.72-8-1.75-.44.8,1.8,2.78,3.4,3.82C205.17,126.44,209.79,127.08,210.28,126.08Z"/><path class="cls-12" d="M210.28,136.35c.43.86-2.18,2.91-3.92,4-3.23,1.92-7.51,2.72-8,1.75-.44-.81,1.8-2.78,3.4-3.83C205.17,136,209.79,135.35,210.28,136.35Z"/><path class="cls-13" d="M207.65,137c-.32-.34-3.15,1.18-3,2,0,.25.37.39.58.43C206.45,139.67,208,137.34,207.65,137Z"/><path class="cls-13" d="M207.65,125.41c-.32.35-3.15-1.17-3-2,0-.25.37-.39.58-.43C206.45,122.76,208,125.09,207.65,125.41Z"/><path class="cls-14" d="M212.51,127.66l11,3.77c-2.85-.11-6.33.45-9.18.33C214.2,130.85,212.68,128.57,212.51,127.66Z"/><path class="cls-2" d="M196.64,143.44c-6.15,3.48-10.46,2.5-12.62,2-.76-.17-2.87-.72-2.84-1.08s2.4-.27,4.3-.41a19,19,0,0,0,9.18-2.92"/><path class="cls-2" d="M194.57,141.09c-7.17,3.79-10.9,1.84-13.36,1.16-.86-.24-3.24-1-3.2-1.41s2.76-.21,4.93-.27c2.79-.08,5,.26,9.93-2.36"/><path class="cls-2" d="M192.42,137.39c-6.69,1.85-9.61-.12-11.58-1.21-.7-.39-2.6-1.54-2.49-1.94s2.38.28,4.25.6a20,20,0,0,0,10.52-1.19"/><path class="cls-2" d="M193.88,139.71c-7.6,2.26-11,.74-13.37-.18-.84-.32-3.16-1.31-3.07-1.73s2.79.06,5,.21a19.88,19.88,0,0,0,10.75-1.71"/><path class="cls-2" d="M196.5,119.68c-5.37-4.38-9.75-4.13-11.94-4-.77,0-2.91.24-2.95.59s2.29.66,4.11,1.1a18.52,18.52,0,0,1,8.43,4.34"/><path class="cls-2" d="M194.15,121.7c-6.4-4.9-10.42-3.6-13-3.34-.89.1-3.38.45-3.41.87s2.68.66,4.81,1.07c2.73.54,5,.57,9.37,4"/><path class="cls-2" d="M191.38,125c-6.27-2.92-9.49-1.46-11.63-.71-.75.26-2.83,1.08-2.79,1.5s2.39.11,4.29.1a20,20,0,0,1,10.15,2.91"/><path class="cls-2" d="M193.17,122.87c-7-3.44-10.56-2.5-13.06-2-.88.18-3.32.76-3.3,1.19s2.73.39,4.9.61a19.47,19.47,0,0,1,10.17,3.41"/></svg>